<svg width="112" height="53" viewBox="0 0 112 53" fill="none" xmlns="http://www.w3.org/2000/svg">
<g clip-path="url(#clip0_4503_3150)">
<path d="M61.2379 17.3378C60.7957 16.917 60.5745 16.3929 60.5745 15.7659C60.5745 15.1389 60.7957 14.6153 61.2379 14.1943C61.6801 13.7734 62.235 13.5627 62.9034 13.5627C63.5717 13.5627 64.1266 13.7734 64.5688 14.1943C65.0111 14.6152 65.2322 15.1392 65.2322 15.7659C65.2322 16.3925 65.0111 16.917 64.5688 17.3378C64.1266 17.7592 63.5714 17.9694 62.9034 17.9694C62.2354 17.9694 61.6801 17.7592 61.2379 17.3378ZM64.772 19.743V34.6291H60.9808V19.743H64.772Z" fill="#2F2E2C"/>
<path d="M71.9756 31.5391H78.6644V34.6289H67.6694V31.5927L74.2231 22.8329H67.6967V19.743H78.5832V22.7793L71.9756 31.5391Z" fill="#2F2E2C"/>
<path d="M85.0554 31.5391H91.7442V34.6289H80.7493V31.5927L87.3029 22.8329H80.7765V19.743H91.663V22.7793L85.0554 31.5391Z" fill="#2F2E2C"/>
<path d="M98.135 31.5391H104.824V34.6289H93.8289V31.5927L100.383 22.8329H93.8562V19.743H104.743V22.7793L98.135 31.5391Z" fill="#2F2E2C"/>
<path d="M108.006 17.3378C107.563 16.917 107.342 16.3929 107.342 15.7659C107.342 15.1389 107.563 14.6153 108.006 14.1943C108.448 13.7734 109.003 13.5627 109.671 13.5627C110.339 13.5627 110.894 13.7734 111.337 14.1943C111.779 14.6152 112 15.1392 112 15.7659C112 16.3925 111.779 16.917 111.337 17.3378C110.894 17.7592 110.339 17.9694 109.671 17.9694C109.003 17.9694 108.448 17.7592 108.006 17.3378ZM111.54 19.743V34.6291H107.749V19.743H111.54Z" fill="#2F2E2C"/>
<path d="M26.582 52.7505C41.2628 52.7505 53.164 40.9419 53.164 26.3752C53.164 11.8085 41.2628 -6.10352e-05 26.582 -6.10352e-05C11.9012 -6.10352e-05 0 11.8085 0 26.3752C0 40.9419 11.9012 52.7505 26.582 52.7505Z" fill="#2F2E2C"/>
<path d="M38.0431 28.5364C38.7685 29.7832 38.338 31.3776 37.0814 32.0976L25.3264 38.8316C24.9126 39.0686 24.4609 39.1811 24.0152 39.1811C23.1072 39.1811 22.2239 38.7137 21.7374 37.8773C21.4404 37.3671 21.3372 36.7986 21.4049 36.2556C21.4317 35.9661 21.3486 35.5145 21.0342 35.3066C20.5858 35.0099 20.0517 35.1315 19.7572 35.3209C19.4626 35.5102 18.8852 35.7071 18.3803 35.7071C17.6547 35.7071 16.9979 35.4153 16.5225 34.9435C16.047 34.4718 15.753 33.8199 15.753 33.1002V19.6322C15.753 18.1924 16.9291 17.0252 18.3803 17.0252C18.8842 17.0252 19.3548 17.1659 19.7547 17.41C20.0369 17.6011 20.616 17.7291 21.0342 17.4359C21.3575 17.2092 21.4481 16.8196 21.4048 16.4942C21.3372 15.9515 21.4405 15.3833 21.7374 14.8732C22.2239 14.0369 23.107 13.5693 24.015 13.5693C24.4609 13.5693 24.9126 13.6819 25.3264 13.919L37.0814 20.653C38.338 21.3728 38.7685 22.9672 38.0431 24.2141C37.5564 25.0505 36.6732 25.5179 35.7651 25.5179C35.3194 25.5179 34.8677 25.4054 34.4541 25.1684C34.4541 25.1684 22.7962 18.4927 22.7046 18.4376C22.4326 18.2849 21.9046 18.0575 21.4561 18.3541C21.0671 18.6115 21.005 18.9524 21.0077 19.6322C21.005 20.0595 21.0077 33.1002 21.0077 33.1002C20.9722 33.6379 21.062 34.1276 21.4561 34.3883C21.9046 34.6849 22.4654 34.452 22.6991 34.3162C22.8589 34.2234 34.4541 27.5822 34.4541 27.5822C34.8677 27.3451 35.3194 27.2326 35.7651 27.2326C36.6732 27.2326 37.5564 27.7001 38.0431 28.5364Z" fill="white"/>
</g>
<defs>
<clipPath id="clip0_4503_3150">
<rect width="112" height="53" fill="white"/>
</clipPath>
</defs>
</svg>
